Results
version=1
nRows=22
nColumns=24
inDegrees=yes
endheader
time	pelvis_tilt	pelvis_list	pelvis_rotation	pelvis_tx	pelvis_ty	pelvis_tz	hip_flexion_r	hip_adduction_r	hip_rotation_r	knee_angle_r	ankle_angle_r	subtalar_angle_r	mtp_angle_r	hip_flexion_l	hip_adduction_l	hip_rotation_l	knee_angle_l	ankle_angle_l	subtalar_angle_l	mtp_angle_l	lumbar_extension	lumbar_bending	lumbar_rotation
      0.47900000	     -8.40040345	      2.40676206	      3.77426943	     -0.75139010	      1.01511816	      0.27391789	     31.12900958	     -0.90412338	    -11.95666119	     -1.38227095	      6.97342959	      7.30861600	     17.02179696	     -4.41071411	      6.82590984	      5.16259045	    -12.89824332	      6.43617969	     -2.32808264	      5.37072624	      2.29392048	     -5.07322715	     -5.51585038
      0.48316667	     -8.35481384	      2.35423346	      3.91119613	     -0.74554295	      1.01474106	      0.27389968	     31.03860070	     -0.83933142	    -11.59529787	     -1.78910704	      7.27615515	      7.16413606	     17.03745475	     -4.43142537	      6.75258853	      5.27992027	    -13.62810856	      6.34249099	     -2.34589277	      5.38273278	      2.29173120	     -4.99932266	     -5.50567520
      0.48733333	     -8.33320234	      2.30743412	      4.03887328	     -0.73966934	      1.01432581	      0.27391658	     30.94620837	     -0.76351042	    -11.04674539	     -2.17769131	      7.40636012	      6.66710660	     17.08175436	     -4.40570514	      6.68675900	      5.37659893	    -14.40292291	      6.21193938	     -2.33674881	      5.47977681	      2.31758731	     -4.95951284	     -5.56673460
      0.49150000	     -8.25311257	      2.25467563	      4.16908972	     -0.73374783	      1.01401083	      0.27392481	     30.79593480	     -0.68335993	    -10.55440466	     -2.61833898	      7.52756880	      6.17500766	     17.14142500	     -4.42713976	      6.61140507	      5.46925089	    -15.20134769	      6.04121165	     -2.36656603	      5.63637172	      2.27543065	     -4.88882583	     -5.63093245
      0.49566667	     -8.18021006	      2.17067189	      4.30767692	     -0.72775843	      1.01370028	      0.27390975	     30.63958004	     -0.57493218	    -10.06962375	     -3.06425525	      7.57669280	      5.58344477	     17.23559470	     -4.42075800	      6.50307769	      5.55957732	    -16.03783037	      5.84909458	     -2.38003445	      5.92205720	      2.26802246	     -4.76604984	     -5.67676331
      0.49983333	     -8.04937510	      2.10942481	      4.41606106	     -0.72176549	      1.01346273	      0.27395811	     30.43774136	     -0.47150821	     -9.58523701	     -3.55803919	      7.57600166	      4.99619964	     17.94511021	     -4.45297233	      6.40681133	      5.54425166	    -16.90342082	      5.57892519	     -2.32614569	      8.35830571	      2.17133997	     -4.68666641	     -5.61563386
      0.50400000	     -7.98832945	      2.04755130	      4.54650850	     -0.71574904	      1.01313580	      0.27396078	     30.30597195	     -0.38049986	     -9.10238677	     -4.06418161	      7.51052581	      4.32592176	     17.96475027	     -4.38948873	      6.32791065	      5.61990396	    -17.81843738	      5.28904305	     -2.43662192	      8.44431158	      2.17349378	     -4.60830167	     -5.79432004
      0.50816667	     -7.85769405	      1.96642573	      4.66058882	     -0.70968279	      1.01292098	      0.27400985	     30.08291788	     -0.25111994	     -8.60855952	     -4.54122098	      7.35372167	      3.54787821	     17.99528782	     -4.37574560	      6.21101130	      5.59510964	    -18.77071478	      4.98066114	     -2.42119639	      8.61302248	      2.09211210	     -4.49314764	     -5.82978924
      0.51233333	     -7.73378002	      1.89352681	      4.76861492	     -0.70358451	      1.01271787	      0.27408711	     29.86474804	     -0.12419662	     -8.10807608	     -5.02453729	      7.19766379	      2.79283645	     18.02599702	     -4.33638421	      6.09790393	      5.53479832	    -19.73851618	      4.57534098	     -2.38802496	      8.79743446	      2.03596818	     -4.37954204	     -5.87371921
      0.51650000	     -7.61853503	      1.81066018	      4.88030106	     -0.69748538	      1.01249264	      0.27417541	     29.65972243	      0.01167189	     -7.66268804	     -5.50479363	      6.84850586	      1.92230623	     18.53510235	     -4.24835981	      5.96729297	      5.43172240	    -20.77783396	      4.14121896	     -2.35973159	     12.15341446	      1.99128286	     -4.27320070	     -5.84829538
      0.52066667	     -7.48623422	      1.73866736	      4.98111184	     -0.69136295	      1.01231476	      0.27428986	     29.42907367	      0.14636144	     -7.19671617	     -5.97446062	      6.49273395	      1.06177449	     18.53620441	     -4.16562637	      5.84549736	      5.31449139	    -21.82851184	      3.67769578	     -2.33613108	     12.23699257	      1.91654346	     -4.17469314	     -5.92058881
      0.52483333	     -7.36753568	      1.64923417	      5.08025865	     -0.68522074	      1.01213285	      0.27443683	     29.20803265	      0.30169962	     -6.74692800	     -6.42964298	      6.07266673	      0.17093816	     18.54235183	     -4.03347810	      5.69461343	      5.14260644	    -22.93589617	      3.16910044	     -2.25244568	     12.41525777	      1.87049600	     -4.05865281	     -5.93256233
      0.52900000	     -7.22984262	      1.56281158	      5.17300897	     -0.67906749	      1.01200060	      0.27461773	     28.96422457	      0.46069214	     -6.31276176	     -6.87611866	      5.60462576	     -0.71321215	     18.55221573	     -3.89510301	      5.53327068	      4.91975590	    -24.07146932	      2.60336786	     -2.14622297	     12.68956078	      1.80421938	     -3.94594373	     -5.93952303
      0.53316667	     -7.10187979	      1.47257430	      5.25661274	     -0.67290794	      1.01185823	      0.27483453	     28.73530443	      0.62678688	     -5.90142253	     -7.32509189	      5.10194921	     -1.57764956	     18.56340456	     -3.71778878	      5.35705854	      4.64873461	    -25.24970804	      1.97580376	     -2.02925332	     13.03333697	      1.75422453	     -3.82636552	     -5.93933805
      0.53733333	     -6.97544365	      1.37106468	      5.33983635	     -0.66673605	      1.01174872	      0.27507768	     28.50342851	      0.80541031	     -5.51060012	     -7.76246134	      4.56918544	     -2.42864640	     18.57386754	     -3.51071582	      5.15724296	      4.35556087	    -26.45960873	      1.26970492	     -1.90589368	     13.46861981	      1.71114473	     -3.69920322	     -5.93311156
      0.54150000	     -6.85298328	      1.27236796	      5.42674686	     -0.66056591	      1.01165803	      0.27534401	     28.28725572	      0.97438191	     -5.19222423	     -8.22511162	      4.07610386	     -3.12560499	     18.74257824	     -3.27310345	      4.94098692	      4.01543653	    -27.67756559	      0.37471972	     -1.79437335	     18.59604345	      1.67072178	     -3.58233621	     -5.87224049
      0.54566667	     -6.74002925	      1.16606651	      5.50079681	     -0.65440454	      1.01157392	      0.27564298	     28.08182460	      1.15726546	     -4.85765217	     -8.68271652	      3.55455076	     -3.85459380	     18.72933845	     -2.99184699	      4.71089544	      3.65351352	    -28.95674428	     -0.44349920	     -1.64993486	     18.66857736	      1.64582690	     -3.45415584	     -5.90209585
      0.54983333	     -6.61114320	      1.05966817	      5.57261036	     -0.64825404	      1.01154698	      0.27597867	     27.86036311	      1.34226439	     -4.54460974	     -9.14100525	      3.03747228	     -4.55977905	     18.71187531	     -2.70320478	      4.46329148	      3.27223469	    -30.25542163	     -1.33686049	     -1.48756541	     18.82041115	      1.59798241	     -3.33090850	     -5.87001007
      0.55400000	     -6.48452709	      0.93396969	      5.64181287	     -0.64210311	      1.01153105	      0.27633624	     27.64293567	      1.54601108	     -4.26344329	     -9.59960294	      2.53379217	     -5.22242674	     18.68765157	     -2.37959970	      4.17939581	      2.86402490	    -31.59310371	     -2.29420267	     -1.31253437	     19.04610108	      1.55781961	     -3.18275460	     -5.83254561
      0.55816667	     -6.36549118	      0.81422612	      5.70953906	     -0.63596825	      1.01156228	      0.27670890	     27.44066903	      1.73873021	     -4.01728845	    -10.07793507	      2.07295597	     -5.79892056	     18.65561959	     -2.02393584	      3.89145565	      2.45606809	    -32.94297823	     -3.35741758	     -1.17695702	     19.31632017	      1.52784911	     -3.04972146	     -5.79369242
      0.56233333	     -6.23486998	      0.68265744	      5.78636433	     -0.62984866	      1.01162127	      0.27709805	     27.23112658	      1.93627690	     -3.83541499	    -10.56893484	      1.68215141	     -6.27550754	     18.26828242	     -1.65244473	      3.57012102	      2.04536074	    -34.31067153	     -4.52174005	     -1.01078039	     22.94952324	      1.47858648	     -2.91278439	     -5.71853094
      0.56650000	     -6.16559267	      0.55088894	      5.84242992	     -0.62375531	      1.01160360	      0.27751385	     27.10213186	      2.13253821	     -3.65277311	    -11.08903854	      1.33514578	     -6.71739321	     18.25404567	     -1.18401709	      3.25107196	      1.62881511	    -35.72217119	     -5.68341285	     -0.88615212	     22.97584410	      1.50780366	     -2.76556444	     -5.69975011
